<svg width="6" height="6" viewBox="0 0 6 6" fill="none" xmlns="http://www.w3.org/2000/svg">
<path fill-rule="evenodd" clip-rule="evenodd" d="M1.11047 0.673398C1.16563 0.618105 1.23115 0.574235 1.30328 0.544303C1.37542 0.51437 1.45275 0.498962 1.53085 0.498962C1.60894 0.498962 1.68628 0.51437 1.75841 0.544303C1.83055 0.574235 1.89607 0.618105 1.95122 0.673398L3.3121 2.03546L4.67297 0.673398C4.78446 0.561908 4.93568 0.499273 5.09335 0.499273C5.25102 0.499273 5.40223 0.561908 5.51372 0.673398C5.62521 0.784889 5.68785 0.936102 5.68785 1.09377C5.68785 1.25144 5.62521 1.40266 5.51372 1.51415L4.15166 2.87502L5.51372 4.2359C5.62521 4.34739 5.68785 4.4986 5.68785 4.65627C5.68785 4.81394 5.62521 4.96516 5.51372 5.07665C5.40223 5.18814 5.25102 5.25077 5.09335 5.25077C4.93568 5.25077 4.78446 5.18814 4.67297 5.07665L3.3121 3.71459L1.95122 5.07665C1.83973 5.18814 1.68852 5.25077 1.53085 5.25077C1.37318 5.25077 1.22196 5.18814 1.11047 5.07665C0.998981 4.96516 0.936346 4.81394 0.936346 4.65627C0.936346 4.4986 0.998981 4.34739 1.11047 4.2359L2.47253 2.87502L1.11047 1.51415C1.05518 1.45899 1.01131 1.39347 0.981375 1.32134C0.951442 1.2492 0.936035 1.17187 0.936035 1.09377C0.936035 1.01567 0.951442 0.938344 0.981375 0.866209C1.01131 0.794074 1.05518 0.728553 1.11047 0.673398Z" fill="#9F9F9F"/>
</svg>
